<svg xmlns="http://www.w3.org/2000/svg" xml:space="preserve" width="250mm" height="250mm" viewBox="0 0 250 250"><g stroke-linecap="round" stroke-linejoin="round" style="fill:none;stroke:currentColor;stroke-width:.581672;stroke-dasharray:none"><path d="M17.58 17H20a1 1 0 0 0 1-1V9.8a1 1 0 0 0-1-1H4a1 1 0 0 0-1 1V16a1 1 0 0 0 1 1h2.46M6 7.13a1 1 0 0 1 1-1h10a1 1 0 0 1 1 1v1.63H6Z" style="stroke:currentColor;stroke-width:.581672;stroke-dasharray:none" transform="matrix(12.916 0 0 12.917 -30 -70.47)"/></g><g style="fill:currentColor;stroke:currentColor"><path d="M92.16 40.96h61.44v20.48H92.16z" style="stroke:currentColor" transform="matrix(.387 0 0 .388 30.84 72.03)"/></g><g style="fill:currentColor;stroke:currentColor"><path d="M378.88 40.96h20.48v20.48h-20.48z" style="stroke:currentColor" transform="matrix(.387 0 0 .388 30.84 72.03)"/></g><g style="fill:currentColor;stroke:currentColor"><path d="M337.92 40.96h20.48v20.48h-20.48z" style="stroke:currentColor" transform="matrix(.387 0 0 .388 30.84 72.03)"/></g><g style="fill:currentColor;stroke:currentColor"><path d="M92.16 163.84h61.44v20.48H92.16z" style="stroke:currentColor" transform="matrix(.387 0 0 .388 30.84 72.03)"/></g><g style="fill:currentColor;stroke:currentColor"><path d="M378.88 163.84h20.48v20.48h-20.48z" style="stroke:currentColor" transform="matrix(.387 0 0 .388 30.84 72.03)"/></g><g style="fill:currentColor;stroke:currentColor"><path d="M337.92 163.84h20.48v20.48h-20.48z" style="stroke:currentColor" transform="matrix(.387 0 0 .388 30.84 72.03)"/></g><g style="fill:currentColor;stroke:currentColor;stroke-width:0;stroke-dasharray:none"><path stroke="none" d="M447.8 303c-19.03 0-34.92 13.1-39.5 30.71h-32.18v-71.15h40.96v-20.48h-40.96V221.6h61.44V119.2h-61.44V98.72h61.44V-3.68H48.44v102.4h61.44v20.48H48.44v102.4h61.44v20.48H68.92v20.48h40.96v71.15H77.71C73.13 316.1 57.23 303 38.2 303a41 41 0 0 0-40.97 40.96 41 41 0 0 0 40.96 40.96c19.03 0 34.93-13.1 39.5-30.72h52.66v-91.63h51.2V365.9c-17.61 4.58-30.72 20.48-30.72 39.5a41 41 0 0 0 40.96 40.96 41 41 0 0 0 40.96-40.96c0-19.02-13.1-34.92-30.72-39.5V262.56h81.92V365.9c-17.61 4.58-30.72 20.48-30.72 39.5a41 41 0 0 0 40.96 40.96 41 41 0 0 0 40.96-40.96c0-19.02-13.1-34.92-30.72-39.5V262.56h51.2v91.63h52.66c4.58 17.62 20.47 30.72 39.5 30.72a41 41 0 0 0 40.96-40.96A41 41 0 0 0 447.8 303zM38.2 364.42a20.5 20.5 0 0 1-20.48-20.48 20.5 20.5 0 0 1 20.48-20.48 20.5 20.5 0 0 1 20.48 20.48 20.5 20.5 0 0 1-20.48 20.48zM68.92 78.24V16.8h348.16v61.44zm286.72 20.48v20.48H130.36V98.72ZM68.92 201.12v-61.44h348.16v61.44zM212.28 405.4a20.5 20.5 0 0 1-20.48 20.48 20.5 20.5 0 0 1-20.48-20.48 20.5 20.5 0 0 1 20.48-20.48 20.5 20.5 0 0 1 20.48 20.48zm102.4 0a20.5 20.5 0 0 1-20.48 20.48 20.5 20.5 0 0 1-20.48-20.48 20.5 20.5 0 0 1 20.48-20.48 20.5 20.5 0 0 1 20.48 20.48zm40.96-163.3H130.36V221.6h225.28zm92.16 122.34a20.5 20.5 0 0 1-20.48-20.48 20.5 20.5 0 0 1 20.48-20.48 20.5 20.5 0 0 1 20.48 20.48 20.5 20.5 0 0 1-20.48 20.48z" style="stroke:currentColor;stroke-width:0;stroke-dasharray:none" transform="matrix(.387 0 0 .388 30.84 72.03)"/></g></svg>
